<svg width="1080" height="61" viewBox="0 0 1080 61" fill="none" xmlns="http://www.w3.org/2000/svg">
<path fill-rule="evenodd" clip-rule="evenodd" d="M12.4636 4.65662H16.6932V21.5959H30.9101V0H43.3737V4.65662H47.6033V61H32.8626V54.8536H30.9101V39.4041H16.6932V61H1.95245V54.8536H0V0H12.4636V4.65662ZM15.1087 59.4259L12.4636 59.4307V59.4309H3.5369V54.8536H2.74468V60.2155H15.9009V38.6196H30.9101V37.835H15.1087V59.4259ZM43.3737 6.2257H46.0188V59.4259L43.3737 59.4307V59.4309H34.447V54.8536H33.6548V60.2155H46.811V5.44116H43.3737V6.2257ZM12.4636 54.8536H4.32913V58.6464H14.3165V37.0505H30.9101V33.2577H12.4636V54.8536ZM43.3737 54.8536H35.2392V58.6464H45.2266V7.01023H43.3737V54.8536ZM12.4636 21.5959H14.3165V7.01023H12.4636V21.5959ZM12.4636 6.2257H15.1087V21.5959H15.9009V5.44116H12.4636V6.2257Z" fill="url(#paint0_linear_71_1065)"/>
<path fill-rule="evenodd" clip-rule="evenodd" d="M92.8298 4.65662H97.0593V17.8082H66.1493V21.5959H80.4658V26.2525H84.6954V39.4041H66.1493V43.1918H92.8298V47.8484H97.0593V61H51.4086V54.8536H49.4562V0H92.8298V4.65662ZM92.8298 49.4175H95.4749V59.4259L92.8298 59.4307V59.4309H52.9931V54.8536H52.2008V60.2155H96.2671V48.633H92.8298V49.4175ZM92.8298 54.8536H53.7853V58.6464H94.6826V50.202H92.8298V54.8536ZM80.4658 33.2577H61.9198V43.1918H63.7727V37.0505H82.3187V28.6061H80.4658V33.2577ZM80.4658 27.8216H83.1109V37.83L80.4658 37.8348V37.835H64.5649V43.1918H65.3571V38.6196H83.9032V27.0371H80.4658V27.8216ZM92.8298 11.6618H61.9198V21.5959H63.7727V15.4546H94.6826V7.01023H92.8298V11.6618ZM92.8298 6.2257H95.4749V16.234L92.8298 16.2389V16.2391H64.5649V21.5959H65.3571V17.0236H96.2671V5.44116H92.8298V6.2257Z" fill="url(#paint1_linear_71_1065)"/>
<path fill-rule="evenodd" clip-rule="evenodd" d="M136.104 4.65662H140.333V10.798H142.286V15.4546H146.515V28.6061H140.333V32.3939H142.286V37.0505H146.515V61H131.775V54.8536H129.822V39.4041H115.605V61H100.865V54.8536H98.9122V0H136.104V4.65662ZM114.021 59.4259L111.376 59.4307V59.4309H102.449V54.8536H101.657V60.2155H114.813V38.6196H129.822V37.835H114.021V59.4259ZM142.286 38.6196H144.931V59.4259L142.286 59.4307V59.4309H133.359V54.8536H132.567V60.2155H145.723V37.835H142.286V38.6196ZM111.376 54.8536H103.241V58.6464H113.229V37.0505H129.822V33.2577H111.376V54.8536ZM142.286 54.8536H134.151V58.6464H144.139V39.4041H142.286V54.8536ZM142.286 22.4597H136.104V32.3939H137.957V26.2525H144.139V17.8082H142.286V22.4597ZM142.286 17.0236H144.931V27.032L142.286 27.0369V27.0371H138.749V32.3939H139.541V27.8216H145.723V16.2391H142.286V17.0236ZM111.376 21.5959H113.229V15.4546H129.822V11.6618H111.376V21.5959ZM114.021 21.5959H114.813V17.0236H129.822V16.2391H114.021V21.5959ZM115.605 21.5959H129.822V17.8082H115.605V21.5959ZM136.104 10.798H137.957V7.01023H136.104V10.798ZM136.104 6.2257H138.749V10.798H139.541V5.44116H136.104V6.2257Z" fill="url(#paint2_linear_71_1065)"/>
<path fill-rule="evenodd" clip-rule="evenodd" d="M167.014 4.65662H171.244V10.798H173.196V15.4546H177.426V21.5959H185.46V10.798H191.643V0H210.288V4.65662H214.518V61H199.777V54.8536H197.825V28.6061H195.972V39.4041H189.79V50.202H175.049V44.0557H173.096V39.4041H168.867V33.2577H166.914V28.6061H165.062V61H150.321V54.8536H148.368V0H167.014V4.65662ZM163.477 59.4259L160.832 59.4307V59.4309H151.905V54.8536H151.113V60.2155H164.269V27.8216H166.914V27.0371H163.477V59.4259ZM210.288 6.2257H212.933V59.4259L210.288 59.4307V59.4309H201.361V54.8536H200.569V60.2155H213.725V5.44116H210.288V6.2257ZM160.832 54.8536H152.698V58.6464H162.685V26.2525H166.914V22.4597H160.832V54.8536ZM210.288 54.8536H202.154V58.6464H212.141V7.01023H210.288V54.8536ZM194.387 37.83L191.742 37.8348V37.835H188.205V48.6279L185.56 48.6328V48.633H176.633V44.0557H175.841V49.4175H188.997V38.6196H195.179V27.8216H197.825V27.0371H194.387V37.83ZM191.742 33.2577H185.56V44.0557H177.426V47.8484H187.413V37.0505H193.595V26.2525H197.825V22.4597H191.742V33.2577ZM169.659 38.6196H173.096V37.835H170.451V33.2577H169.659V38.6196ZM171.244 37.0505H173.096V33.2577H171.244V37.0505ZM173.196 21.5959H175.049V17.8082H173.196V21.5959ZM173.196 17.0236H175.841V21.5959H176.633V16.2391H173.196V17.0236ZM167.014 10.798H168.867V7.01023H167.014V10.798ZM167.014 6.2257H169.659V10.798H170.451V5.44116H167.014V6.2257Z" fill="url(#paint3_linear_71_1065)"/>
<path fill-rule="evenodd" clip-rule="evenodd" d="M259.744 4.65662H263.974V17.8082H233.064V21.5959H247.38V26.2525H251.61V39.4041H233.064V43.1918H259.744V47.8484H263.974V61H218.323V54.8536H216.371V0H259.744V4.65662ZM259.744 49.4175H262.389V59.4259L259.744 59.4307V59.4309H219.908V54.8536H219.115V60.2155H263.182V48.633H259.744V49.4175ZM259.744 54.8536H220.7V58.6464H261.597V50.202H259.744V54.8536ZM247.38 33.2577H228.834V43.1918H230.687V37.0505H249.233V28.6061H247.38V33.2577ZM247.38 27.8216H250.025V37.83L247.38 37.8348V37.835H231.479V43.1918H232.272V38.6196H250.818V27.0371H247.38V27.8216ZM259.744 11.6618H228.834V21.5959H230.687V15.4546H261.597V7.01023H259.744V11.6618ZM259.744 6.2257H262.389V16.234L259.744 16.2389V16.2391H231.479V21.5959H232.272V17.0236H263.182V5.44116H259.744V6.2257Z" fill="url(#paint4_linear_71_1065)"/>
<path fill-rule="evenodd" clip-rule="evenodd" d="M309.2 4.65662H313.43V17.8082H282.52V21.5959H309.2V26.2525H313.43V61H267.779V54.8536H265.827V43.1918H296.737V39.4041H267.779V33.2577H265.827V0H309.2V4.65662ZM309.2 27.8216H311.845V59.4259L309.2 59.4307V59.4309H269.364V54.8536H268.571V60.2155H312.638V27.0371H309.2V27.8216ZM309.2 54.8536H270.156V58.6464H311.053V28.6061H309.2V54.8536ZM268.571 38.6196H296.737V37.835H269.364V33.2577H268.571V38.6196ZM270.156 37.0505H296.737V33.2577H270.156V37.0505ZM309.2 11.6618H278.29V21.5959H280.143V15.4546H311.053V7.01023H309.2V11.6618ZM309.2 6.2257H311.845V16.234L309.2 16.2389V16.2391H280.935V21.5959H281.728V17.0236H312.638V5.44116H309.2V6.2257Z" fill="url(#paint5_linear_71_1065)"/>
<path fill-rule="evenodd" clip-rule="evenodd" d="M383.385 4.65662H387.614V17.8082H356.704V21.5959H383.385V26.2525H387.614V61H341.963V54.8536H340.011V43.1918H370.921V39.4041H341.963V33.2577H340.011V0H383.385V4.65662ZM383.385 27.8216H386.03V59.4259L383.385 59.4307V59.4309H343.548V54.8536H342.756V60.2155H386.822V27.0371H383.385V27.8216ZM383.385 54.8536H344.34V58.6464H385.237V28.6061H383.385V54.8536ZM342.756 38.6196H370.921V37.835H343.548V33.2577H342.756V38.6196ZM344.34 37.0505H370.921V33.2577H344.34V37.0505ZM383.385 11.6618H352.474V21.5959H354.327V15.4546H385.237V7.01023H383.385V11.6618ZM383.385 6.2257H386.03V16.234L383.385 16.2389V16.2391H355.12V21.5959H355.912V17.0236H386.822V5.44116H383.385V6.2257Z" fill="url(#paint6_linear_71_1065)"/>
<path fill-rule="evenodd" clip-rule="evenodd" d="M432.841 4.65662H437.07V17.8082H406.16V21.5959H420.477V26.2525H424.706V39.4041H406.16V43.1918H432.841V47.8484H437.07V61H391.42V54.8536H389.467V0H432.841V4.65662ZM432.841 49.4175H435.486V59.4259L432.841 59.4307V59.4309H393.004V54.8536H392.212V60.2155H436.278V48.633H432.841V49.4175ZM432.841 54.8536H393.796V58.6464H434.694V50.202H432.841V54.8536ZM420.477 33.2577H401.931V43.1918H403.784V37.0505H422.33V28.6061H420.477V33.2577ZM420.477 27.8216H423.122V37.83L420.477 37.8348V37.835H404.576V43.1918H405.368V38.6196H423.914V27.0371H420.477V27.8216ZM432.841 11.6618H401.931V21.5959H403.784V15.4546H434.694V7.01023H432.841V11.6618ZM432.841 6.2257H435.486V16.234L432.841 16.2389V16.2391H404.576V21.5959H405.368V17.0236H436.278V5.44116H432.841V6.2257Z" fill="url(#paint7_linear_71_1065)"/>
<path fill-rule="evenodd" clip-rule="evenodd" d="M482.297 4.65662H486.526V17.8082H455.616V43.1918H482.297V47.8484H486.526V61H447.058V54.8536H445.105V50.202H440.876V44.0557H438.923V10.798H445.105V0H482.297V4.65662ZM482.297 49.4175H484.942V59.4259L482.297 59.4307V59.4309H448.642V54.8536H447.85V60.2155H485.734V48.633H482.297V49.4175ZM482.297 54.8536H449.434V58.6464H484.15V50.202H482.297V54.8536ZM441.668 49.4175H445.105V48.633H442.46V44.0557H441.668V49.4175ZM443.252 47.8484H445.105V44.0557H443.252V47.8484ZM482.297 11.6618H451.387V43.1918H453.24V15.4546H484.15V7.01023H482.297V11.6618ZM482.297 6.2257H484.942V16.234L482.297 16.2389V16.2391H454.032V43.1918H454.824V17.0236H485.734V5.44116H482.297V6.2257Z" fill="url(#paint8_linear_71_1065)"/>
<path fill-rule="evenodd" clip-rule="evenodd" d="M500.843 4.65662H505.072V43.1918H525.471V0H537.935V4.65662H542.165V50.202H535.983V61H496.514V54.8536H494.561V50.202H490.332V44.0557H488.379V0H500.843V4.65662ZM537.935 6.2257H540.58V48.6279L537.935 48.6328V48.633H534.398V59.4259L531.753 59.4307V59.4309H498.098V54.8536H497.306V60.2155H535.19V49.4175H541.372V5.44116H537.935V6.2257ZM537.935 44.0557H531.753V54.8536H498.89V58.6464H533.606V47.8484H539.788V7.01023H537.935V44.0557ZM491.124 49.4175H494.561V48.633H491.916V44.0557H491.124V49.4175ZM492.708 47.8484H494.561V44.0557H492.708V47.8484ZM500.843 43.1918H502.696V7.01023H500.843V43.1918ZM500.843 6.2257H503.488V43.1918H504.28V5.44116H500.843V6.2257Z" fill="url(#paint9_linear_71_1065)"/>
<path fill-rule="evenodd" clip-rule="evenodd" d="M581.209 4.65662H585.439V10.798H587.391V15.4546H591.621V28.6061H585.439V32.3939H587.391V37.0505H591.621V61H576.88V54.8536H574.928V39.4041H560.711V61H545.97V54.8536H544.017V0H581.209V4.65662ZM559.126 59.4259L556.481 59.4307V59.4309H547.554V54.8536H546.762V60.2155H559.918V38.6196H574.928V37.835H559.126V59.4259ZM587.391 38.6196H590.036V59.4259L587.391 59.4307V59.4309H578.464V54.8536H577.672V60.2155H590.828V37.835H587.391V38.6196ZM556.481 54.8536H548.347V58.6464H558.334V37.0505H574.928V33.2577H556.481V54.8536ZM587.391 54.8536H579.257V58.6464H589.244V39.4041H587.391V54.8536ZM587.391 22.4597H581.209V32.3939H583.062V26.2525H589.244V17.8082H587.391V22.4597ZM587.391 17.0236H590.036V27.032L587.391 27.0369V27.0371H583.854V32.3939H584.646V27.8216H590.828V16.2391H587.391V17.0236ZM556.481 21.5959H558.334V15.4546H574.928V11.6618H556.481V21.5959ZM559.126 21.5959H559.918V17.0236H574.928V16.2391H559.126V21.5959ZM560.711 21.5959H574.928V17.8082H560.711V21.5959ZM581.209 10.798H583.062V7.01023H581.209V10.798ZM581.209 6.2257H583.854V10.798H584.646V5.44116H581.209V6.2257Z" fill="url(#paint10_linear_71_1065)"/>
<path fill-rule="evenodd" clip-rule="evenodd" d="M605.937 4.65662H610.167V61H595.426V54.8536H593.474V0H605.937V4.65662ZM605.937 6.2257H608.582V59.4259L605.937 59.4307V59.4309H597.01V54.8536H596.218V60.2155H609.374V5.44116H605.937V6.2257ZM605.937 54.8536H597.803V58.6464H607.79V7.01023H605.937V54.8536Z" fill="url(#paint11_linear_71_1065)"/>
<path fill-rule="evenodd" clip-rule="evenodd" d="M661.575 4.65662H665.805V17.8082H647.259V61H632.518V54.8536H630.566V17.8082H613.972V11.6618H612.02V0H661.575V4.65662ZM661.575 6.2257H664.22V16.234L661.575 16.2389V16.2391H645.674V59.4259L643.029 59.4307V59.4309H634.103V54.8536H633.31V60.2155H646.467V17.0236H665.013V5.44116H661.575V6.2257ZM661.575 11.6618H643.029V54.8536H634.895V58.6464H644.882V15.4546H663.428V7.01023H661.575V11.6618ZM614.764 17.0236H630.566V16.2391H615.556V11.6618H614.764V17.0236ZM616.349 15.4546H630.566V11.6618H616.349V15.4546Z" fill="url(#paint12_linear_71_1065)"/>
<path fill-rule="evenodd" clip-rule="evenodd" d="M680.121 4.65662H684.351V10.798H686.303V15.4546H690.533V21.5959H698.568V10.798H704.75V0H717.213V4.65662H721.443V17.8082H715.261V28.6061H709.079V39.4041H702.897V61H688.156V54.8536H686.204V39.4041H681.974V33.2577H680.022V28.6061H675.792V22.4597H673.84V17.8082H669.61V11.6618H667.658V0H680.121V4.65662ZM717.213 6.2257H719.859V16.234L717.213 16.2389V16.2391H713.677V27.032L711.031 27.0369V27.0371H707.495V37.83L704.849 37.8348V37.835H701.313V59.4259L698.667 59.4307V59.4309H689.741V54.8536H688.948V60.2155H702.105V38.6196H708.287V27.8216H714.469V17.0236H720.651V5.44116H717.213V6.2257ZM717.213 11.6618H711.031V22.4597H704.849V33.2577H698.667V54.8536H690.533V58.6464H700.52V37.0505H706.702V26.2525H712.884V15.4546H719.066V7.01023H717.213V11.6618ZM682.766 38.6196H686.204V37.835H683.559V33.2577H682.766V38.6196ZM684.351 37.0505H686.204V33.2577H684.351V37.0505ZM676.584 27.8216H680.022V27.0371H677.377V22.4597H676.584V27.8216ZM678.169 26.2525H680.022V22.4597H678.169V26.2525ZM686.303 21.5959H688.156V17.8082H686.303V21.5959ZM686.303 17.0236H688.948V21.5959H689.741V16.2391H686.303V17.0236ZM670.402 17.0236H673.84V16.2391H671.195V11.6618H670.402V17.0236ZM671.987 15.4546H673.84V11.6618H671.987V15.4546ZM680.121 10.798H681.974V7.01023H680.121V10.798ZM680.121 6.2257H682.766V10.798H683.559V5.44116H680.121V6.2257Z" fill="url(#paint13_linear_71_1065)"/>
<path fill-rule="evenodd" clip-rule="evenodd" d="M785.216 4.65662H789.445V10.798H791.398V15.4546H795.627V61H780.886V54.8536H778.934V39.4041H764.717V61H749.976V54.8536H748.024V10.798H754.206V0H785.216V4.65662ZM763.133 59.4259L760.488 59.4307V59.4309H751.561V54.8536H750.769V60.2155H763.925V38.6196H778.934V37.835H763.133V59.4259ZM791.398 17.0236H794.043V59.4259L791.398 59.4307V59.4309H782.471V54.8536H781.679V60.2155H794.835V16.2391H791.398V17.0236ZM760.488 54.8536H752.353V58.6464H762.34V37.0505H778.934V33.2577H760.488V54.8536ZM791.398 54.8536H783.263V58.6464H793.25V17.8082H791.398V54.8536ZM760.488 21.5959H762.34V15.4546H778.934V11.6618H760.488V21.5959ZM763.133 21.5959H763.925V17.0236H778.934V16.2391H763.133V21.5959ZM764.717 21.5959H778.934V17.8082H764.717V21.5959ZM785.216 10.798H787.068V7.01023H785.216V10.798ZM785.216 6.2257H787.861V10.798H788.653V5.44116H785.216V6.2257Z" fill="url(#paint14_linear_71_1065)"/>
<path fill-rule="evenodd" clip-rule="evenodd" d="M809.944 4.65662H814.173V43.1918H834.572V0H847.036V4.65662H851.265V50.202H845.083V61H805.615V54.8536H803.662V50.202H799.433V44.0557H797.48V0H809.944V4.65662ZM847.036 6.2257H849.681V48.6279L847.036 48.6328V48.633H843.499V59.4259L840.854 59.4307V59.4309H807.199V54.8536H806.407V60.2155H844.291V49.4175H850.473V5.44116H847.036V6.2257ZM847.036 44.0557H840.854V54.8536H807.991V58.6464H842.707V47.8484H848.889V7.01023H847.036V44.0557ZM800.225 49.4175H803.662V48.633H801.017V44.0557H800.225V49.4175ZM801.809 47.8484H803.662V44.0557H801.809V47.8484ZM809.944 43.1918H811.797V7.01023H809.944V43.1918ZM809.944 6.2257H812.589V43.1918H813.381V5.44116H809.944V6.2257Z" fill="url(#paint15_linear_71_1065)"/>
<path fill-rule="evenodd" clip-rule="evenodd" d="M890.31 4.65662H894.539V10.798H896.492V15.4546H900.722V50.202H894.539V61H855.071V54.8536H853.118V0H890.31V4.65662ZM896.492 17.0236H899.137V48.6279L896.492 48.6328V48.633H892.955V59.4259L890.31 59.4307V59.4309H856.655V54.8536H855.863V60.2155H893.747V49.4175H899.929V16.2391H896.492V17.0236ZM896.492 44.0557H890.31V54.8536H857.447V58.6464H892.163V47.8484H898.345V17.8082H896.492V44.0557ZM865.582 43.1918H867.435V15.4546H884.028V11.6618H865.582V43.1918ZM868.227 43.1918H869.019V17.0236H884.028V16.2391H868.227V43.1918ZM869.811 43.1918H884.028V17.8082H869.811V43.1918ZM890.31 10.798H892.163V7.01023H890.31V10.798ZM890.31 6.2257H892.955V10.798H893.747V5.44116H890.31V6.2257Z" fill="url(#paint16_linear_71_1065)"/>
<path fill-rule="evenodd" clip-rule="evenodd" d="M915.038 4.65662H919.267V61H904.527V54.8536H902.574V0H915.038V4.65662ZM915.038 6.2257H917.683V59.4259L915.038 59.4307V59.4309H906.111V54.8536H905.319V60.2155H918.475V5.44116H915.038V6.2257ZM915.038 54.8536H906.903V58.6464H916.891V7.01023H915.038V54.8536Z" fill="url(#paint17_linear_71_1065)"/>
<path fill-rule="evenodd" clip-rule="evenodd" d="M970.676 4.65662H974.906V17.8082H956.36V61H941.619V54.8536H939.666V17.8082H923.073V11.6618H921.12V0H970.676V4.65662ZM970.676 6.2257H973.321V16.234L970.676 16.2389V16.2391H954.775V59.4259L952.13 59.4307V59.4309H943.203V54.8536H942.411V60.2155H955.567V17.0236H974.114V5.44116H970.676V6.2257ZM970.676 11.6618H952.13V54.8536H943.996V58.6464H953.983V15.4546H972.529V7.01023H970.676V11.6618ZM923.865 17.0236H939.666V16.2391H924.657V11.6618H923.865V17.0236ZM925.45 15.4546H939.666V11.6618H925.45V15.4546Z" fill="url(#paint18_linear_71_1065)"/>
<path fill-rule="evenodd" clip-rule="evenodd" d="M1020.13 4.65662H1024.36V10.798H1026.31V15.4546H1030.54V50.202H1024.36V61H984.893V54.8536H982.941V50.202H978.711V44.0557H976.759V10.798H982.941V0H1020.13V4.65662ZM1026.31 17.0236H1028.96V48.6279L1026.31 48.6328V48.633H1022.78V59.4259L1020.13 59.4307V59.4309H986.478V54.8536H985.685V60.2155H1023.57V49.4175H1029.75V16.2391H1026.31V17.0236ZM1026.31 44.0557H1020.13V54.8536H987.27V58.6464H1021.99V47.8484H1028.17V17.8082H1026.31V44.0557ZM979.503 49.4175H982.941V48.633H980.295V44.0557H979.503V49.4175ZM981.088 47.8484H982.941V44.0557H981.088V47.8484ZM989.222 43.1918H991.075V15.4546H1013.85V11.6618H989.222V43.1918ZM991.867 43.1918H992.659V17.0236H1013.85V16.2391H991.867V43.1918ZM993.452 43.1918H1013.85V17.8082H993.452V43.1918ZM1020.13 10.798H1021.99V7.01023H1020.13V10.798ZM1020.13 6.2257H1022.78V10.798H1023.57V5.44116H1020.13V6.2257Z" fill="url(#paint19_linear_71_1065)"/>
<path fill-rule="evenodd" clip-rule="evenodd" d="M1069.59 4.65662H1073.82V10.798H1075.77V15.4546H1080V28.6061H1073.82V32.3939H1075.77V37.0505H1080V61H1065.26V54.8536H1063.31V39.4041H1049.09V61H1034.35V54.8536H1032.4V0H1069.59V4.65662ZM1047.51 59.4259L1044.86 59.4307V59.4309H1035.93V54.8536H1035.14V60.2155H1048.3V38.6196H1063.31V37.835H1047.51V59.4259ZM1075.77 38.6196H1078.42V59.4259L1075.77 59.4307V59.4309H1066.84V54.8536H1066.05V60.2155H1079.21V37.835H1075.77V38.6196ZM1044.86 54.8536H1036.73V58.6464H1046.71V37.0505H1063.31V33.2577H1044.86V54.8536ZM1075.77 54.8536H1067.64V58.6464H1077.62V39.4041H1075.77V54.8536ZM1075.77 22.4597H1069.59V32.3939H1071.44V26.2525H1077.62V17.8082H1075.77V22.4597ZM1075.77 17.0236H1078.42V27.032L1075.77 27.0369V27.0371H1072.23V32.3939H1073.03V27.8216H1079.21V16.2391H1075.77V17.0236ZM1044.86 21.5959H1046.71V15.4546H1063.31V11.6618H1044.86V21.5959ZM1047.51 21.5959H1048.3V17.0236H1063.31V16.2391H1047.51V21.5959ZM1049.09 21.5959H1063.31V17.8082H1049.09V21.5959ZM1069.59 10.798H1071.44V7.01023H1069.59V10.798ZM1069.59 6.2257H1072.23V10.798H1073.03V5.44116H1069.59V6.2257Z" fill="url(#paint20_linear_71_1065)"/>
<defs>
<linearGradient id="paint0_linear_71_1065" x1="32.8641" y1="0.0101228" x2="32.8642" y2="61.0186" gradientUnits="userSpaceOnUse">
<stop stop-color="#FF4F7A"/>
<stop offset="1" stop-color="#FF0073"/>
</linearGradient>
<linearGradient id="paint1_linear_71_1065" x1="32.8641" y1="0.0101228" x2="32.8642" y2="61.0186" gradientUnits="userSpaceOnUse">
<stop stop-color="#FF4F7A"/>
<stop offset="1" stop-color="#FF0073"/>
</linearGradient>
<linearGradient id="paint2_linear_71_1065" x1="32.8641" y1="0.0101228" x2="32.8642" y2="61.0186" gradientUnits="userSpaceOnUse">
<stop stop-color="#FF4F7A"/>
<stop offset="1" stop-color="#FF0073"/>
</linearGradient>
<linearGradient id="paint3_linear_71_1065" x1="32.8641" y1="0.0101228" x2="32.8642" y2="61.0186" gradientUnits="userSpaceOnUse">
<stop stop-color="#FF4F7A"/>
<stop offset="1" stop-color="#FF0073"/>
</linearGradient>
<linearGradient id="paint4_linear_71_1065" x1="32.8641" y1="0.0101228" x2="32.8642" y2="61.0186" gradientUnits="userSpaceOnUse">
<stop stop-color="#FF4F7A"/>
<stop offset="1" stop-color="#FF0073"/>
</linearGradient>
<linearGradient id="paint5_linear_71_1065" x1="32.8641" y1="0.0101228" x2="32.8642" y2="61.0186" gradientUnits="userSpaceOnUse">
<stop stop-color="#FF4F7A"/>
<stop offset="1" stop-color="#FF0073"/>
</linearGradient>
<linearGradient id="paint6_linear_71_1065" x1="32.8641" y1="0.0101228" x2="32.8642" y2="61.0186" gradientUnits="userSpaceOnUse">
<stop stop-color="#FF4F7A"/>
<stop offset="1" stop-color="#FF0073"/>
</linearGradient>
<linearGradient id="paint7_linear_71_1065" x1="32.8641" y1="0.0101228" x2="32.8642" y2="61.0186" gradientUnits="userSpaceOnUse">
<stop stop-color="#FF4F7A"/>
<stop offset="1" stop-color="#FF0073"/>
</linearGradient>
<linearGradient id="paint8_linear_71_1065" x1="32.8641" y1="0.0101228" x2="32.8642" y2="61.0186" gradientUnits="userSpaceOnUse">
<stop stop-color="#FF4F7A"/>
<stop offset="1" stop-color="#FF0073"/>
</linearGradient>
<linearGradient id="paint9_linear_71_1065" x1="32.8641" y1="0.0101228" x2="32.8642" y2="61.0186" gradientUnits="userSpaceOnUse">
<stop stop-color="#FF4F7A"/>
<stop offset="1" stop-color="#FF0073"/>
</linearGradient>
<linearGradient id="paint10_linear_71_1065" x1="32.8641" y1="0.0101228" x2="32.8642" y2="61.0186" gradientUnits="userSpaceOnUse">
<stop stop-color="#FF4F7A"/>
<stop offset="1" stop-color="#FF0073"/>
</linearGradient>
<linearGradient id="paint11_linear_71_1065" x1="32.8641" y1="0.0101228" x2="32.8642" y2="61.0186" gradientUnits="userSpaceOnUse">
<stop stop-color="#FF4F7A"/>
<stop offset="1" stop-color="#FF0073"/>
</linearGradient>
<linearGradient id="paint12_linear_71_1065" x1="32.8641" y1="0.0101228" x2="32.8642" y2="61.0186" gradientUnits="userSpaceOnUse">
<stop stop-color="#FF4F7A"/>
<stop offset="1" stop-color="#FF0073"/>
</linearGradient>
<linearGradient id="paint13_linear_71_1065" x1="32.8641" y1="0.0101228" x2="32.8642" y2="61.0186" gradientUnits="userSpaceOnUse">
<stop stop-color="#FF4F7A"/>
<stop offset="1" stop-color="#FF0073"/>
</linearGradient>
<linearGradient id="paint14_linear_71_1065" x1="32.8641" y1="0.0101228" x2="32.8642" y2="61.0186" gradientUnits="userSpaceOnUse">
<stop stop-color="#FF4F7A"/>
<stop offset="1" stop-color="#FF0073"/>
</linearGradient>
<linearGradient id="paint15_linear_71_1065" x1="32.8641" y1="0.0101228" x2="32.8642" y2="61.0186" gradientUnits="userSpaceOnUse">
<stop stop-color="#FF4F7A"/>
<stop offset="1" stop-color="#FF0073"/>
</linearGradient>
<linearGradient id="paint16_linear_71_1065" x1="32.8641" y1="0.0101228" x2="32.8642" y2="61.0186" gradientUnits="userSpaceOnUse">
<stop stop-color="#FF4F7A"/>
<stop offset="1" stop-color="#FF0073"/>
</linearGradient>
<linearGradient id="paint17_linear_71_1065" x1="32.8641" y1="0.0101228" x2="32.8642" y2="61.0186" gradientUnits="userSpaceOnUse">
<stop stop-color="#FF4F7A"/>
<stop offset="1" stop-color="#FF0073"/>
</linearGradient>
<linearGradient id="paint18_linear_71_1065" x1="32.8641" y1="0.0101228" x2="32.8642" y2="61.0186" gradientUnits="userSpaceOnUse">
<stop stop-color="#FF4F7A"/>
<stop offset="1" stop-color="#FF0073"/>
</linearGradient>
<linearGradient id="paint19_linear_71_1065" x1="32.8641" y1="0.0101228" x2="32.8642" y2="61.0186" gradientUnits="userSpaceOnUse">
<stop stop-color="#FF4F7A"/>
<stop offset="1" stop-color="#FF0073"/>
</linearGradient>
<linearGradient id="paint20_linear_71_1065" x1="32.8641" y1="0.0101228" x2="32.8642" y2="61.0186" gradientUnits="userSpaceOnUse">
<stop stop-color="#FF4F7A"/>
<stop offset="1" stop-color="#FF0073"/>
</linearGradient>
</defs>
</svg>
